<svg width="13" height="13" viewBox="0 0 13 13" fill="none" xmlns="http://www.w3.org/2000/svg">
<path d="M12.5 6.16668C12.5023 7.04659 12.2967 7.9146 11.9 8.70001C11.4296 9.64117 10.7065 10.4328 9.81162 10.9862C8.91675 11.5396 7.88548 11.8329 6.83332 11.8333C5.95341 11.8356 5.0854 11.63 4.29999 11.2333L0.5 12.5L1.76666 8.70001C1.36995 7.9146 1.16437 7.04659 1.16667 6.16668C1.16707 5.11452 1.46041 4.08325 2.01381 3.18838C2.56721 2.29352 3.35883 1.5704 4.29999 1.10002C5.0854 0.703306 5.95341 0.497725 6.83332 0.500019H7.16666C8.55622 0.57668 9.86868 1.16319 10.8527 2.14726C11.8368 3.13132 12.4233 4.44378 12.5 5.83334V6.16668Z" stroke="white" stroke-linecap="round" stroke-linejoin="round"/>
</svg>
