<svg width="14" height="12" viewBox="0 0 14 12" fill="none" xmlns="http://www.w3.org/2000/svg">
<path d="M11.6807 7.07422C12.2872 7.23082 12.8242 7.58501 13.208 8.08008C13.5917 8.57508 13.8002 9.18326 13.8008 9.80957V10.9746C13.8005 11.2505 13.5767 11.4746 13.3008 11.4746C13.0252 11.4742 12.8011 11.2502 12.8008 10.9746V9.81055C12.8004 9.40572 12.666 9.01233 12.418 8.69238C12.1699 8.37249 11.8226 8.14418 11.4307 8.04297C11.1635 7.97387 11.0024 7.70083 11.0713 7.43359C11.1403 7.1663 11.4134 7.00535 11.6807 7.07422ZM7.48242 6.98242C8.23204 6.98244 8.95126 7.28064 9.48145 7.81055C10.0115 8.34064 10.3094 9.05993 10.3096 9.80957V10.9736C10.3096 11.2498 10.0857 11.4736 9.80957 11.4736C9.53375 11.4733 9.30959 11.2495 9.30957 10.9736V9.80957C9.30939 9.32515 9.11697 8.86013 8.77441 8.51758C8.43177 8.17521 7.96682 7.98244 7.48242 7.98242H2.82715C2.34275 7.98262 1.8777 8.17504 1.53516 8.51758C1.19262 8.86013 1.00018 9.32516 1 9.80957V10.9736C0.999983 11.2498 0.776132 11.4736 0.5 11.4736C0.22407 11.4734 1.66766e-05 11.2496 0 10.9736V9.80957C0.000181434 9.05994 0.298054 8.34063 0.828125 7.81055C1.3582 7.28047 2.07753 6.98262 2.82715 6.98242H7.48242ZM5.15527 0C6.71644 0.000175426 7.983 1.26604 7.9834 2.82715C7.9834 4.3886 6.71668 5.6551 5.15527 5.65527C3.59385 5.65511 2.32812 4.38861 2.32812 2.82715C2.32853 1.26603 3.5941 0.00016489 5.15527 0ZM9.35254 0.0917969C9.96069 0.247535 10.4998 0.601747 10.8848 1.09766C11.2695 1.59352 11.4785 2.20343 11.4785 2.83105C11.4784 3.4587 11.2696 4.06862 10.8848 4.56445C10.4998 5.06035 9.96069 5.41459 9.35254 5.57031C9.08522 5.63871 8.81284 5.47715 8.74414 5.20996C8.67565 4.94248 8.83703 4.67009 9.10449 4.60156C9.49754 4.50092 9.84593 4.27166 10.0947 3.95117C10.3434 3.63075 10.4784 3.23665 10.4785 2.83105C10.4785 2.42535 10.3435 2.03047 10.0947 1.70996C9.84596 1.3896 9.49742 1.16118 9.10449 1.06055C8.83703 0.992065 8.67575 0.719609 8.74414 0.452148C8.81264 0.184638 9.08503 0.023303 9.35254 0.0917969ZM5.15527 1C4.14639 1.00016 3.32853 1.81832 3.32812 2.82715C3.32812 3.83632 4.14614 4.65511 5.15527 4.65527C6.1644 4.6551 6.9834 3.83631 6.9834 2.82715C6.983 1.81832 6.16415 1.00018 5.15527 1Z" fill="white"/>
</svg>
