<svg width="13" height="13" viewBox="0 0 13 13" fill="none" xmlns="http://www.w3.org/2000/svg">
<path d="M7.88838 3.21738C7.77269 3.33541 7.70788 3.4941 7.70788 3.65937C7.70788 3.82464 7.77269 3.98333 7.88838 4.10136L8.89864 5.11162C9.01667 5.22731 9.17535 5.29212 9.34063 5.29212C9.5059 5.29212 9.66459 5.22731 9.78262 5.11162L12.163 2.73119C12.4805 3.43281 12.5767 4.21453 12.4386 4.97217C12.3006 5.72981 11.9349 6.42739 11.3904 6.97194C10.8458 7.5165 10.1482 7.88216 9.3906 8.0202C8.63296 8.15825 7.85124 8.06212 7.14962 7.74462L2.78655 12.1077C2.53536 12.3589 2.19467 12.5 1.83943 12.5C1.48419 12.5 1.1435 12.3589 0.89231 12.1077C0.641118 11.8565 0.5 11.5158 0.5 11.1606C0.5 10.8053 0.641118 10.4646 0.89231 10.2134L5.25538 5.85038C4.93788 5.14876 4.84175 4.36704 4.9798 3.6094C5.11784 2.85176 5.4835 2.15418 6.02806 1.60962C6.57261 1.06507 7.27019 0.699407 8.02783 0.561363C8.78547 0.42332 9.56719 0.519452 10.2688 0.836949L7.89469 3.21107L7.88838 3.21738Z" stroke="white" stroke-linecap="round" stroke-linejoin="round"/>
</svg>
